inDegrees=no
num_controls=7
num_derivatives=13
num_iterations=90
num_multipliers=7
num_parameters=0
num_slacks=7
num_states=26
objective=0.489163
objective_accelerations=0.002295
objective_balance=0.002701
objective_effort=0.011956
objective_height=0.275828
objective_ligament=0.196383
solver_duration=1133.515831
status=Solve_Succeeded
success=true
DataType=double
version=3
OpenSimVersion=4.5
endheader
time	/jointset/ground_pelvis/pelvis_tilt/value	/jointset/ground_pelvis/pelvis_tx/value	/jointset/ground_pelvis/pelvis_ty/value	/jointset/hip_l/hip_flexion_l/value	/jointset/hip_l/hip_adduction_l/value	/jointset/hip_l/hip_rotation_l/value	/jointset/back/lumbar_extension/value	/jointset/patellofemoral_l/patellar_flexion_l/value	/jointset/knee_l/knee_flexion_l/value	/jointset/knee_l/knee_adduction_l/value	/jointset/knee_l/knee_rotation_l/value	/jointset/ankle_l/ankle_angle_l/value	/jointset/subtalar_l/subtalar_angle_l/value	/jointset/ground_pelvis/pelvis_tilt/speed	/jointset/ground_pelvis/pelvis_tx/speed	/jointset/ground_pelvis/pelvis_ty/speed	/jointset/hip_l/hip_flexion_l/speed	/jointset/hip_l/hip_adduction_l/speed	/jointset/hip_l/hip_rotation_l/speed	/jointset/back/lumbar_extension/speed	/jointset/patellofemoral_l/patellar_flexion_l/speed	/jointset/knee_l/knee_flexion_l/speed	/jointset/knee_l/knee_adduction_l/speed	/jointset/knee_l/knee_rotation_l/speed	/jointset/ankle_l/ankle_angle_l/speed	/jointset/subtalar_l/subtalar_angle_l/speed	/forceset/tau_hip_flexion_l	/forceset/tau_hip_adduction_l	/forceset/tau_hip_rotation_l	/forceset/tau_knee_flexion_l	/forceset/tau_ankle_angle_l	/forceset/tau_subtalar_angle_l	/forceset/tau_lumbar_extension	lambda_cid13_p0	lambda_cid13_p1	lambda_cid13_p2	lambda_cid13_p3	lambda_cid13_p4	lambda_cid13_p5	lambda_cid14_p0	/jointset/ground_pelvis/pelvis_tilt/accel	/jointset/ground_pelvis/pelvis_tx/accel	/jointset/ground_pelvis/pelvis_ty/accel	/jointset/hip_l/hip_flexion_l/accel	/jointset/hip_l/hip_adduction_l/accel	/jointset/hip_l/hip_rotation_l/accel	/jointset/back/lumbar_extension/accel	/jointset/patellofemoral_l/patellar_flexion_l/accel	/jointset/knee_l/knee_flexion_l/accel	/jointset/knee_l/knee_adduction_l/accel	/jointset/knee_l/knee_rotation_l/accel	/jointset/ankle_l/ankle_angle_l/accel	/jointset/subtalar_l/subtalar_angle_l/accel	gamma_cid13_p0	gamma_cid13_p1	gamma_cid13_p2	gamma_cid13_p3	gamma_cid13_p4	gamma_cid13_p5	gamma_cid14_p0
0.5	0.00657313391173388	0.06882170051576317	0.930254291758103	0.2534616425977154	-0.2274439881892686	-0.3420908492366049	-0.4384040693281311	0.2306925042694291	0.230692504269406	-0.03571174579788148	-0.1744171894318306	0.03149373006509439	0.08536244658255941	0.06870166177095936	0.0633042380797729	0.01770174829748417	-0.1951052067507249	0.03340525600448458	-0.04517643453057148	-0.1271329072702455	-0.07920394310095163	-0.07920394310095476	0.04607710184547557	-3.836629272032375e-05	0.06401391681335267	0.06322629495727526	-0.06410280990455959	0.09651827302838405	-0.008293980348002501	-0.1035023162396326	0.07770240450080981	-0.05912664187685994	0.1478100919760124	-25.08184678775964	26.1691039000043	-0.1702167982337314	6.438003481772884	-704.6279030567852	-12.09556227879374	-22.47728132506966	0.178759536773336	-0.03565998762477696	0.01469685780729652	-0.2549930647772479	0.009300458665885376	-0.03951199620257653	0.09977027175199292	-0.1743652369171264	-0.1743652369171275	-0.05045411372262386	-0.001879976148387656	-0.1107525291567727	-0.02910084007328278	-1.269274937994893e-09	2.318431062838224e-09	-2.097638358839511e-09	1.259389443421296e-09	-4.279609814767775e-09	3.571154238501134e-09	-1.231330285662878e-10
0.51	0.007268928054131791	0.0694529310262787	0.9304320158004106	0.2514981458520679	-0.2271094978787554	-0.3425445901875713	-0.4396701728262319	0.2298919048575152	0.2298919048575052	-0.03525349604794197	-0.1744177244645758	0.03212834341931813	0.08599322710693208	0.07045144331150587	0.06293951430913351	0.01784217309229424	-0.1975846605207192	0.0334916502849498	-0.04556998582777864	-0.1260748355967173	-0.08091528205624379	-0.08091528205625136	0.04556988773991518	-6.865725447899291e-05	0.06290478801011624	0.06292661123313219	-0.06431834630322092	0.0969850568116512	-0.008308674289625541	-0.1021064370529017	0.07579587068466444	-0.05901898268870867	0.1481781553372982	-25.68564251138843	26.19367959561638	-0.1348552741417237	6.564332771629104	-704.6350380925402	-12.03349613423698	-22.46269548835098	0.172228916792857	-0.03723077588166595	0.01358137035346781	-0.2429993831788249	0.008135910218535276	-0.03901083469437452	0.1107691270472019	-0.1694196184859913	-0.1694196184870433	-0.05129910377644015	-0.003606597634226197	-0.1115881176045678	-0.03088201636363136	-1.21742093095822e-09	2.237315067704473e-09	-2.087990552969809e-09	1.234871418479655e-09	-4.262862042542136e-09	3.489767202936176e-09	-1.064846354913148e-10
0.52	0.007982048302801479	0.07008044385826603	0.9306111173066717	0.2495101389987087	-0.226774178225867	-0.343002213479195	-0.4409253069052154	0.2290742117772938	0.2290742117773191	-0.03480040724805726	-0.1744185629951636	0.03275174647317222	0.08662091481851147	0.0721668830159554	0.06256070237413333	0.01797724108822735	-0.2000072282934822	0.03357112446471265	-0.04595290265356449	-0.1249390234473938	-0.08262267675756474	-0.08262267675757673	0.04504491184222172	-9.906587402762622e-05	0.06177185673899446	0.06260773239784279	-0.06453388270218548	0.09745184059477169	-0.008323368231460366	-0.1007105578663187	0.0738893368684395	-0.05891132350074595	0.1485462186984559	-26.29106169788508	26.21779372938476	-0.0985682598357972	6.697331023863932	-704.664091508601	-11.97590213487926	-22.44774860053636	0.1718911695527721	-0.03847762049554567	0.01362549803193586	-0.2436158653316888	0.007916438525149548	-0.03738510191834752	0.1153183669106948	-0.1735763861231209	-0.1735763861231217	-0.05400647214983639	-0.001903507706278023	-0.1155130227323544	-0.03293986230221821	-1.166341225348291e-09	2.161396957695502e-09	-2.095456477295187e-09	1.213330880446581e-09	-4.19487285137192e-09	3.425836433372546e-09	-9.131216669868143e-11
0.53	0.008712157309279076	0.07070409925195242	0.9307915435157084	0.2474981864986028	-0.2264380932167494	-0.3434636160096035	-0.4421687065445735	0.2282394680786622	0.2282394680786271	-0.03435264408046319	-0.1744197070512758	0.03336370707364549	0.08724532569543417	0.0738493188623108	0.06216811994148899	0.01810712410928073	-0.2023734618762621	0.03364530371645392	-0.04632658829543185	-0.1237286228640098	-0.08432476474639682	-0.08432476474640742	0.0445063413312104	-0.0001303135410110674	0.06061695223392299	0.06227213606112712	-0.06470196676981964	0.09789133608060276	-0.008338762193563396	-0.09936445424703351	0.07206074348528473	-0.05881531303686308	0.1488810759756047	-26.87058393272037	26.24374039863528	-0.06406729715013269	6.815189286750258	-704.6692544552284	-11.91783154579054	-22.43243605109304	0.1655798602170694	-0.03998677386471354	0.01253738092054985	-0.2316557354737995	0.007082993519431006	-0.03720764205701644	0.1257431370759683	-0.1683302547598106	-0.1683302547600043	-0.05398939714854738	-0.003821014647224123	-0.115975977526514	-0.03421560995257575	-1.10406878275157e-09	2.071330341907199e-09	-2.089257790050286e-09	1.17687109907936e-09	-4.214139667430436e-09	3.331139668921148e-09	-7.15161766468066e-11
